<?xml version="1.0" encoding="UTF-8" standalone="no"?>
<!-- Uploaded to: SVG Repo, www.svgrepo.com, Generator: SVG Repo Mixer Tools -->

<svg
   fill="#000000"
   width="50px"
   height="50px"
   viewBox="0 0 20 20"
   version="1.1"
   
   id="svg4"
	>
  <defs
     id="defs8" />
 
  <path
     d="m 10,0.4 c -5.302,0 -9.6,4.298 -9.6,9.6 0,5.302 4.298,9.6 9.6,9.6 5.302,0 9.6,-4.298 9.6,-9.6 C 19.6,4.698 15.302,0.4 10,0.4 Z M 4.4884328,5.3511185 H 15.485245 c 0.583474,0 0.282231,0.7934091 -0.03509,0.9964102 -0.317329,0.2014516 -4.708741,3.0171248 -4.873986,3.1209488 -0.165245,0.103827 -0.375822,0.154962 -0.5893237,0.154962 -0.2054492,0.0044 -0.4083254,-0.04902 -0.5878614,-0.154962 L 4.5235289,6.3475287 C 4.2062008,6.1445276 3.9064207,5.3511185 4.4884328,5.3511185 Z M 15.849368,13.874066 c 0,0.325423 -0.36851,0.774816 -0.649281,0.774816 H 4.7999117 c -0.2807697,0 -0.6492799,-0.449393 -0.6492799,-0.774816 V 8.2225776 c 0,-0.1425658 -0.00293,-0.3269714 0.2515227,-0.1704591 l 4.9968227,3.1224975 c 0.1763511,0.114239 0.3815551,0.168334 0.5878615,0.154963 0.2135013,0 0.3685103,-0.01704 0.5893233,-0.154963 l 5.021683,-3.1209478 c 0.254448,-0.158062 0.251523,0.027893 0.251523,0.1704589 z"
     id="path356"
     />
</svg>
